<?xml version="1.0" encoding="UTF-8" standalone="no"?>
<svg
   xmlns:dc="http://purl.org/dc/elements/1.1/"
   xmlns:cc="http://creativecommons.org/ns#"
   xmlns:rdf="http://www.w3.org/1999/02/22-rdf-syntax-ns#"
   xmlns:svg="http://www.w3.org/2000/svg"
   xmlns="http://www.w3.org/2000/svg"
   xmlns:sodipodi="http://sodipodi.sourceforge.net/DTD/sodipodi-0.dtd"
   xmlns:inkscape="http://www.inkscape.org/namespaces/inkscape"
   width="40mm"
   height="40mm"
   viewBox="0 0 40 40"
   version="1.1"
   id="svg8"
   inkscape:version="1.0.1 (3bc2e813f5, 2020-09-07)"
   sodipodi:docname="night.svg">
  <defs
     id="defs2" />
  <sodipodi:namedview
     id="base"
     pagecolor="#ffffff"
     bordercolor="#666666"
     borderopacity="1.0"
     inkscape:pageopacity="0.0"
     inkscape:pageshadow="2"
     inkscape:zoom="1.979899"
     inkscape:cx="199.09256"
     inkscape:cy="166.83438"
     inkscape:document-units="mm"
     inkscape:current-layer="layer1"
     inkscape:document-rotation="0"
     showgrid="false"
     inkscape:window-width="1920"
     inkscape:window-height="1026"
     inkscape:window-x="0"
     inkscape:window-y="0"
     inkscape:window-maximized="1" />
  <metadata
     id="metadata5">
    <rdf:RDF>
      <cc:Work
         rdf:about="">
        <dc:format>image/svg+xml</dc:format>
        <dc:type
           rdf:resource="http://purl.org/dc/dcmitype/StillImage" />
        <dc:title></dc:title>
      </cc:Work>
    </rdf:RDF>
  </metadata>
  <g
     inkscape:label="Layer 1"
     inkscape:groupmode="layer"
     id="layer1"
     style="opacity:1;mix-blend-mode:normal">
    <path
       style="fill:#000000;stroke-width:0.0944941"
       d="m 17.566071,31.704507 c 0,-0.108809 -0.120742,-0.14174 -0.519715,-0.14174 -0.398976,0 -0.519719,-0.03293 -0.519719,-0.141742 0,-0.104992 -0.110244,-0.14174 -0.425222,-0.14174 -0.314981,0 -0.425223,-0.03675 -0.425223,-0.14174 0,-0.0882 -0.08925,-0.141743 -0.236235,-0.141743 -0.146992,0 -0.236236,-0.05355 -0.236236,-0.141739 0,-0.0945 -0.09449,-0.141743 -0.283483,-0.141743 -0.155914,0 -0.283482,-0.04252 -0.283482,-0.09449 0,-0.05197 -0.106305,-0.09449 -0.236234,-0.09449 -0.146992,0 -0.236235,-0.05355 -0.236235,-0.141742 0,-0.09449 -0.09449,-0.14174 -0.283483,-0.14174 -0.188987,0 -0.283483,-0.04725 -0.283483,-0.141743 0,-0.07796 -0.06378,-0.14174 -0.141739,-0.14174 -0.07796,0 -0.141743,-0.06378 -0.141743,-0.14174 0,-0.0882 -0.08924,-0.141742 -0.236233,-0.141742 -0.146992,0 -0.236236,-0.05355 -0.236236,-0.14174 0,-0.07796 -0.06378,-0.141743 -0.14174,-0.141743 -0.07796,0 -0.141743,-0.04252 -0.141743,-0.09449 0,-0.05197 -0.06378,-0.09449 -0.14174,-0.09449 -0.07796,0 -0.141742,-0.06378 -0.141742,-0.141743 0,-0.07796 -0.06378,-0.14174 -0.14174,-0.14174 -0.07796,0 -0.141743,-0.06378 -0.141743,-0.141742 0,-0.07796 -0.06378,-0.14174 -0.14174,-0.14174 -0.07796,0 -0.14174,-0.06378 -0.14174,-0.14174 0,-0.07796 -0.04252,-0.141743 -0.0945,-0.141743 -0.05197,0 -0.09449,-0.06378 -0.09449,-0.14174 0,-0.07796 -0.06378,-0.141742 -0.14174,-0.141742 -0.07796,0 -0.141742,-0.04252 -0.141742,-0.09449 0,-0.05197 -0.06378,-0.09449 -0.14174,-0.09449 -0.07796,0 -0.141743,-0.06378 -0.141743,-0.141743 0,-0.07796 -0.06378,-0.141739 -0.14174,-0.141739 -0.07796,0 -0.141742,-0.06378 -0.141742,-0.141743 0,-0.07796 -0.06378,-0.14174 -0.141741,-0.14174 -0.08924,0 -0.14174,-0.08999 -0.14174,-0.242985 0,-0.249174 -0.190904,-0.512967 -0.371229,-0.512967 -0.05568,0 -0.1012427,-0.127568 -0.1012427,-0.283482 0,-0.188989 -0.04725,-0.283483 -0.14174,-0.283483 -0.07796,0 -0.141742,-0.06378 -0.141742,-0.14174 0,-0.07796 -0.06378,-0.141742 -0.14174,-0.141742 -0.10237,0 -0.1417426,-0.104992 -0.1417426,-0.377976 0,-0.272984 -0.039373,-0.377976 -0.1417399,-0.377976 -0.094493,0 -0.14174,-0.09449 -0.14174,-0.283482 0,-0.155917 -0.042524,-0.283483 -0.094496,-0.283483 -0.051972,0 -0.094493,-0.106304 -0.094493,-0.236236 0,-0.146989 -0.053546,-0.236233 -0.1417399,-0.236233 -0.110244,0 -0.1417426,-0.125992 -0.1417426,-0.566965 0,-0.440973 -0.031499,-0.566965 -0.1417399,-0.566965 -0.1124929,0 -0.1417426,-0.136491 -0.1417426,-0.661458 0,-0.524968 -0.029247,-0.661459 -0.14174,-0.661459 -0.1196922,0 -0.1417425,-0.220485 -0.1417425,-1.41741 0,-1.196924 0.02204,-1.417409 0.1417425,-1.417409 0.1148742,0 0.14174,-0.152242 0.14174,-0.803201 0,-0.65096 0.026866,-0.803199 0.1417426,-0.803199 0.1049919,0 0.1417399,-0.110244 0.1417399,-0.425222 0,-0.314981 0.036748,-0.425225 0.1417426,-0.425225 0.1023673,0 0.1417399,-0.104992 0.1417399,-0.377976 0,-0.207886 0.042521,-0.377976 0.094493,-0.377976 0.051972,0 0.094496,-0.127566 0.094496,-0.283482 0,-0.188987 0.047247,-0.283483 0.14174,-0.283483 0.088194,0 0.1417399,-0.08924 0.1417399,-0.236233 0,-0.146992 0.053549,-0.236236 0.1417426,-0.236236 0.09449,0 0.14174,-0.09449 0.14174,-0.283482 0,-0.18899 0.04725,-0.283483 0.141742,-0.283483 0.08819,0 0.14174,-0.08924 0.14174,-0.236236 0,-0.146989 0.05355,-0.236233 0.1417427,-0.236233 0.07796,0 0.14174,-0.06378 0.14174,-0.141743 0,-0.07796 0.04252,-0.14174 0.09449,-0.14174 0.05197,0 0.0945,-0.127566 0.0945,-0.283482 0,-0.188989 0.04725,-0.283483 0.14174,-0.283483 0.07796,0 0.141741,-0.06378 0.141741,-0.14174 0,-0.07796 0.06378,-0.141742 0.141742,-0.141742 0.07796,0 0.14174,-0.04252 0.14174,-0.09449 0,-0.05197 0.06378,-0.09449 0.141743,-0.09449 0.07796,0 0.14174,-0.06378 0.14174,-0.141742 0,-0.07796 0.06378,-0.14174 0.141742,-0.14174 0.07796,0 0.14174,-0.06378 0.14174,-0.141743 0,-0.07796 0.04252,-0.14174 0.09449,-0.14174 0.05197,0 0.0945,-0.06378 0.0945,-0.14174 0,-0.07796 0.06378,-0.141742 0.14174,-0.141742 0.07796,0 0.14174,-0.06378 0.14174,-0.14174 0,-0.07796 0.06379,-0.141743 0.141743,-0.141743 0.07796,0 0.14174,-0.04252 0.14174,-0.09449 0,-0.05197 0.06378,-0.09449 0.141742,-0.09449 0.07796,0 0.14174,-0.06378 0.14174,-0.141743 0,-0.08819 0.08924,-0.14174 0.236236,-0.14174 0.146989,0 0.236236,-0.05355 0.236236,-0.141742 0,-0.07796 0.06378,-0.14174 0.14174,-0.14174 0.07796,0 0.14174,-0.06378 0.14174,-0.1417397 0,-0.0945 0.0945,-0.141743 0.283482,-0.141743 0.18899,0 0.283483,-0.04725 0.283483,-0.14174 0,-0.07796 0.06378,-0.141742 0.141743,-0.141742 0.07796,0 0.14174,-0.04252 0.14174,-0.09449 0,-0.05197 0.106306,-0.09449 0.236235,-0.09449 0.14699,0 0.236234,-0.05355 0.236234,-0.141743 0,-0.09449 0.0945,-0.14174 0.283482,-0.14174 0.188989,0 0.283483,-0.04725 0.283483,-0.1417424 0,-0.1023673 0.104994,-0.14174 0.377975,-0.14174 0.272984,0 0.377976,-0.039373 0.377976,-0.1417399 0,-0.1049946 0.110244,-0.1417426 0.425225,-0.1417426 0.314979,0 0.425223,-0.036748 0.425223,-0.1417399 0,-0.1088126 0.120742,-0.1417426 0.519718,-0.1417426 0.285843,0 0.519716,-0.042521 0.519716,-0.094493 0,-0.060314 0.803201,-0.094493 2.220611,-0.094493 1.41741,0 2.220611,0.034179 2.220611,0.094493 0,0.052496 0.251984,0.094493 0.566962,0.094493 0.440973,0 0.566965,0.031499 0.566965,0.1417426 0,0.1023673 0.104995,0.1417399 0.377976,0.1417399 0.272984,0 0.377976,0.039373 0.377976,0.1417426 0,0.1023673 0.104994,0.1417399 0.377975,0.1417399 0.272984,0 0.377979,0.039373 0.377979,0.14174 0,0.094496 0.09449,0.1417424 0.28348,0.1417424 0.188989,0 0.283482,0.04725 0.283482,0.14174 0,0.0945 0.0945,0.141743 0.283483,0.141743 0.155916,0 0.283482,0.04252 0.283482,0.09449 0,0.05197 0.106307,0.09449 0.236236,0.09449 0.146989,0 0.236233,0.05355 0.236233,0.141742 0,0.07796 0.06379,0.14174 0.141743,0.14174 0.07796,0 0.14174,0.06378 0.14174,0.141743 0,0.09449 0.0945,0.1417397 0.283482,0.1417397 0.18899,0 0.283483,0.04725 0.283483,0.14174 0,0.07796 0.04252,0.141742 0.09449,0.141742 0.05197,0 0.0945,0.06378 0.0945,0.14174 0,0.07796 0.06378,0.141743 0.14174,0.141743 0.07796,0 0.14174,0.04252 0.14174,0.09449 0,0.05197 0.06379,0.09449 0.141743,0.09449 0.07796,0 0.14174,0.06378 0.14174,0.141743 0,0.07796 0.06378,0.14174 0.141742,0.14174 0.07796,0 0.14174,0.06378 0.14174,0.141742 0,0.07796 0.06378,0.14174 0.141743,0.14174 0.07796,0 0.14174,0.06378 0.14174,0.14174 0,0.07796 0.04252,0.141743 0.09449,0.141743 0.05197,0 0.0945,0.06378 0.0945,0.14174 0,0.07796 0.06378,0.141742 0.14174,0.141742 0.07796,0 0.14174,0.04252 0.14174,0.09449 0,0.05197 0.06379,0.09449 0.141742,0.09449 0.07796,0 0.14174,0.06378 0.14174,0.141742 0,0.07796 0.06378,0.14174 0.141743,0.14174 0.09449,0 0.14174,0.09449 0.14174,0.283483 0,0.188989 0.04725,0.283482 0.141742,0.283482 0.07796,0 0.14174,0.06378 0.14174,0.14174 0,0.07796 0.04252,0.141743 0.09449,0.141743 0.05197,0 0.0945,0.106304 0.0945,0.236233 0,0.146992 0.05355,0.236236 0.141739,0.236236 0.07796,0 0.14174,0.06378 0.14174,0.141743 0,0.07796 0.06379,0.14174 0.141743,0.14174 0.09449,0 0.14174,0.09449 0.14174,0.283482 0,0.188987 0.04725,0.283483 0.141743,0.283483 0.08819,0 0.141739,0.08924 0.141739,0.236233 0,0.146992 0.05355,0.236236 0.141743,0.236236 0.104992,0 0.14174,0.110244 0.14174,0.425222 0,0.233873 0.04252,0.425225 0.09449,0.425225 0.05197,0 0.0945,0.170088 0.0945,0.377976 0,0.272981 0.03937,0.377976 0.14174,0.377976 0.112493,0 0.14174,0.13649 0.14174,0.661458 0,0.524968 0.02925,0.661458 0.141743,0.661458 0.121144,0 0.14174,0.267732 0.14174,1.842636 0,1.5749 -0.02059,1.842632 -0.14174,1.842632 -0.112493,0 -0.141743,0.136491 -0.141743,0.661458 0,0.524968 -0.02925,0.661459 -0.14174,0.661459 -0.104992,0 -0.14174,0.110243 -0.14174,0.425222 0,0.233873 -0.04252,0.425225 -0.0945,0.425225 -0.05197,0 -0.09449,0.170087 -0.09449,0.377976 0,0.272981 -0.03937,0.377976 -0.14174,0.377976 -0.0945,0 -0.141743,0.09449 -0.141743,0.283482 0,0.188987 -0.04725,0.283483 -0.141739,0.283483 -0.08819,0 -0.141743,0.08924 -0.141743,0.236233 0,0.146992 -0.05355,0.236236 -0.14174,0.236236 -0.09449,0 -0.141743,0.09449 -0.141743,0.283482 0,0.18899 -0.04725,0.283483 -0.14174,0.283483 -0.07796,0 -0.141739,0.06378 -0.141739,0.14174 0,0.07796 -0.04252,0.141742 -0.0945,0.141742 -0.05197,0 -0.09449,0.106305 -0.09449,0.236234 0,0.146992 -0.05355,0.236235 -0.14174,0.236235 -0.07796,0 -0.141742,0.06378 -0.141742,0.141743 0,0.07796 -0.06378,0.14174 -0.14174,0.14174 -0.07796,0 -0.141743,0.06378 -0.141743,0.14174 0,0.07796 -0.06378,0.141743 -0.14174,0.141743 -0.07796,0 -0.141742,0.06378 -0.141742,0.141739 0,0.07796 -0.04556,0.141743 -0.101243,0.141743 -0.130826,0 -0.371226,0.2404 -0.371226,0.371226 0,0.05569 -0.06378,0.101243 -0.14174,0.101243 -0.07796,0 -0.141743,0.06378 -0.141743,0.141743 0,0.07796 -0.06378,0.14174 -0.14174,0.14174 -0.07796,0 -0.141742,0.06378 -0.141742,0.14174 0,0.07796 -0.06378,0.141742 -0.14174,0.141742 -0.07796,0 -0.141743,0.06378 -0.141743,0.14174 0,0.07796 -0.04556,0.141743 -0.101243,0.141743 -0.130826,0 -0.371226,0.2404 -0.371226,0.371226 0,0.05568 -0.127566,0.101243 -0.283483,0.101243 -0.188986,0 -0.283482,0.04725 -0.283482,0.141742 0,0.07796 -0.06378,0.14174 -0.14174,0.14174 -0.07796,0 -0.141743,0.06378 -0.141743,0.14174 0,0.0882 -0.08924,0.141743 -0.236233,0.141743 -0.146992,0 -0.236236,0.05355 -0.236236,0.14174 0,0.0945 -0.09449,0.141742 -0.283482,0.141742 -0.155914,0 -0.283483,0.04252 -0.283483,0.09449 0,0.05197 -0.127566,0.09449 -0.283482,0.09449 -0.188987,0 -0.28348,0.04725 -0.28348,0.141743 0,0.08819 -0.08924,0.141739 -0.236236,0.141739 -0.146992,0 -0.236236,0.05355 -0.236236,0.141743 0,0.104992 -0.110244,0.14174 -0.425222,0.14174 -0.314981,0 -0.425223,0.03675 -0.425223,0.14174 0,0.108812 -0.120742,0.141742 -0.519718,0.141742 -0.398976,0 -0.519718,0.03293 -0.519718,0.14174 0,0.122428 -0.341228,0.141743 -2.504091,0.141743 -2.162863,0 -2.504094,-0.01931 -2.504094,-0.141743 z M 20.211905,19.892754 V 9.5456543 h -0.803199 c -0.650959,0 -0.8032,0.02687 -0.8032,0.141742 0,0.112493 -0.136491,0.14174 -0.661459,0.14174 -0.524965,0 -0.661458,0.02925 -0.661458,0.141743 0,0.1023667 -0.104992,0.1417397 -0.377976,0.1417397 -0.272981,0 -0.377976,0.03937 -0.377976,0.14174 0,0.0945 -0.09449,0.141742 -0.283482,0.141742 -0.188987,0 -0.283483,0.04725 -0.283483,0.14174 0,0.0882 -0.08924,0.141743 -0.236233,0.141743 -0.129929,0 -0.236236,0.04252 -0.236236,0.09449 0,0.05197 -0.127566,0.09449 -0.283482,0.09449 -0.188987,0 -0.283483,0.04725 -0.283483,0.141743 0,0.09449 -0.09449,0.14174 -0.283482,0.14174 -0.188987,0 -0.28348,0.04725 -0.28348,0.141742 0,0.07796 -0.04252,0.14174 -0.0945,0.14174 -0.05197,0 -0.09449,0.06378 -0.09449,0.14174 0,0.0945 -0.09449,0.141743 -0.283483,0.141743 -0.188987,0 -0.283483,0.04725 -0.283483,0.14174 0,0.07796 -0.06378,0.141742 -0.141739,0.141742 -0.07796,0 -0.141743,0.04252 -0.141743,0.09449 0,0.05197 -0.06378,0.09449 -0.14174,0.09449 -0.07796,0 -0.14174,0.06378 -0.14174,0.141742 0,0.07796 -0.04252,0.14174 -0.0945,0.14174 -0.05197,0 -0.09449,0.06378 -0.09449,0.141743 0,0.07796 -0.06378,0.14174 -0.14174,0.14174 -0.07796,0 -0.141743,0.06378 -0.141743,0.14174 0,0.07796 -0.06378,0.141742 -0.14174,0.141742 -0.07796,0 -0.141742,0.06378 -0.141742,0.14174 0,0.07796 -0.06378,0.141743 -0.14174,0.141743 -0.08819,0 -0.141743,0.08924 -0.141743,0.236233 0,0.146992 -0.05355,0.236236 -0.14174,0.236236 -0.07796,0 -0.14174,0.06378 -0.14174,0.141743 0,0.07796 -0.04252,0.14174 -0.0945,0.14174 -0.05197,0 -0.09449,0.06378 -0.09449,0.141739 0,0.07796 -0.06378,0.141743 -0.14174,0.141743 -0.0882,0 -0.141742,0.08924 -0.141742,0.236236 0,0.146989 -0.05355,0.236233 -0.14174,0.236233 -0.0945,0 -0.141743,0.0945 -0.141743,0.283483 0,0.188989 -0.04725,0.283482 -0.14174,0.283482 -0.09449,0 -0.141742,0.09449 -0.141742,0.283483 0,0.188986 -0.04725,0.283482 -0.141741,0.283482 -0.102367,0 -0.14174,0.104992 -0.14174,0.377976 0,0.207886 -0.04252,0.377976 -0.0945,0.377976 -0.05197,0 -0.09449,0.233873 -0.09449,0.519718 0,0.398973 -0.03293,0.519716 -0.14174,0.519716 -0.1217927,0 -0.1417417,0.29923 -0.1417417,2.126118 0,1.826884 0.01995,2.126114 0.1417417,2.126114 0.10881,0 0.14174,0.120743 0.14174,0.519719 0,0.285842 0.04252,0.519716 0.09449,0.519716 0.05197,0 0.0945,0.191352 0.0945,0.425222 0,0.314981 0.03674,0.425225 0.14174,0.425225 0.08819,0 0.141741,0.08924 0.141741,0.236233 0,0.146992 0.05355,0.236236 0.141742,0.236236 0.09449,0 0.14174,0.09449 0.14174,0.283483 0,0.188989 0.04725,0.283482 0.141743,0.283482 0.08819,0 0.14174,0.08924 0.14174,0.236236 0,0.146989 0.05355,0.236233 0.141742,0.236233 0.07796,0 0.14174,0.06378 0.14174,0.141743 0,0.07796 0.04252,0.14174 0.09449,0.14174 0.05197,0 0.0945,0.127566 0.0945,0.283482 0,0.18899 0.04725,0.283483 0.14174,0.283483 0.07796,0 0.14174,0.06378 0.14174,0.14174 0,0.07796 0.06379,0.141742 0.141743,0.141742 0.07796,0 0.14174,0.04252 0.14174,0.09449 0,0.05197 0.06378,0.09449 0.141742,0.09449 0.07796,0 0.14174,0.06378 0.14174,0.141743 0,0.07796 0.06378,0.141739 0.141743,0.141739 0.07796,0 0.14174,0.06378 0.14174,0.141743 0,0.07796 0.04252,0.14174 0.09449,0.14174 0.05197,0 0.0945,0.06378 0.0945,0.14174 0,0.07796 0.06378,0.141743 0.14174,0.141743 0.07796,0 0.14174,0.06378 0.14174,0.141739 0,0.07796 0.06379,0.141743 0.141743,0.141743 0.07796,0 0.141739,0.04252 0.141739,0.09449 0,0.05197 0.127569,0.09449 0.283483,0.09449 0.188989,0 0.283483,0.04725 0.283483,0.141742 0,0.07796 0.04252,0.14174 0.09449,0.14174 0.05197,0 0.0945,0.06378 0.0945,0.141743 0,0.07796 0.06378,0.14174 0.14174,0.14174 0.07796,0 0.14174,0.06378 0.14174,0.14174 0,0.0945 0.0945,0.141742 0.283482,0.141742 0.188989,0 0.283483,0.04725 0.283483,0.14174 0,0.08819 0.08924,0.141743 0.236236,0.141743 0.129928,0 0.236235,0.04252 0.236235,0.09449 0,0.05197 0.19135,0.09449 0.425223,0.09449 0.314978,0 0.425222,0.03675 0.425222,0.141743 0,0.102367 0.104995,0.14174 0.377976,0.14174 0.272984,0 0.377976,0.03937 0.377976,0.141742 0,0.10881 0.120743,0.14174 0.519718,0.14174 0.398976,0 0.519719,0.03293 0.519719,0.14174 0,0.116544 0.167989,0.141743 0.944938,0.141743 h 0.944941 z"
       id="path48" />
    <path
       style="fill:#000000;stroke-width:0.0944941"
       d="m 29.755804,10.774077 c 0,-0.05197 -0.06378,-0.09449 -0.14174,-0.09449 -0.07796,0 -0.141743,-0.06378 -0.141743,-0.141743 0,-0.07796 -0.06378,-0.14174 -0.14174,-0.14174 -0.09449,0 -0.141742,-0.09449 -0.141742,-0.283482 0,-0.1889897 0.04725,-0.2834827 0.141742,-0.2834827 0.07796,0 0.14174,-0.06378 0.14174,-0.14174 0,-0.07796 0.06378,-0.141742 0.141743,-0.141742 0.07796,0 0.14174,-0.04252 0.14174,-0.09449 0,-0.05197 0.06378,-0.09449 0.141742,-0.09449 0.07796,0 0.14174,-0.06378 0.14174,-0.141743 0,-0.07796 0.04252,-0.14174 0.09449,-0.14174 0.05197,0 0.0945,-0.06378 0.0945,-0.1417424 0,-0.077957 0.06378,-0.14174 0.141739,-0.14174 0.07796,0 0.14174,-0.063783 0.14174,-0.1417399 0,-0.07796 0.06379,-0.1417426 0.141743,-0.1417426 0.07796,0 0.14174,-0.063783 0.14174,-0.1417399 0,-0.077959 0.06378,-0.1417426 0.141743,-0.1417426 0.07796,0 0.141739,-0.042521 0.141739,-0.094493 0,-0.051972 0.06378,-0.094493 0.141743,-0.094493 0.07796,0 0.14174,-0.063783 0.14174,-0.1417426 0,-0.077957 0.04252,-0.1417399 0.09449,-0.1417399 0.05197,0 0.0945,-0.063783 0.0945,-0.1417426 0,-0.077957 0.06378,-0.1417399 0.14174,-0.1417399 0.07796,0 0.14174,-0.063783 0.14174,-0.14174 0,-0.077959 0.06379,-0.1417426 0.141743,-0.1417426 0.07796,0 0.14174,-0.063783 0.14174,-0.1417399 0,-0.077959 0.06378,-0.1417426 0.141742,-0.1417426 0.07796,0 0.14174,-0.042521 0.14174,-0.094493 0,-0.051972 0.106307,-0.094493 0.236236,-0.094493 0.129929,0 0.236236,0.042521 0.236236,0.094493 0,0.051972 0.06378,0.094493 0.14174,0.094493 0.110244,0 0.14174,0.125992 0.14174,0.5669651 0,0.3401774 -0.0405,0.566965 -0.101243,0.566965 -0.130823,0 -0.371226,0.2404004 -0.371226,0.3712263 0,0.055684 -0.06378,0.1012428 -0.14174,0.1012428 -0.07796,0 -0.141743,0.063783 -0.141743,0.1417426 0,0.077957 -0.06378,0.1417399 -0.14174,0.1417399 -0.07796,0 -0.141742,0.063783 -0.141742,0.14174 0,0.077959 -0.06378,0.1417428 -0.14174,0.1417428 -0.07796,0 -0.141743,0.06378 -0.141743,0.14174 0,0.07796 -0.04556,0.141742 -0.101243,0.141742 -0.130823,0 -0.371226,0.240401 -0.371226,0.371227 0,0.05568 -0.06378,0.101243 -0.14174,0.101243 -0.07796,0 -0.141743,0.06378 -0.141743,0.141743 0,0.07796 -0.06378,0.1417397 -0.141739,0.1417397 -0.07796,0 -0.141743,0.06378 -0.141743,0.14174 0,0.07796 -0.06378,0.141742 -0.14174,0.141742 -0.07796,0 -0.141743,0.06378 -0.141743,0.14174 0,0.0882 -0.08924,0.141743 -0.236233,0.141743 -0.129929,0 -0.236236,0.04252 -0.236236,0.09449 0,0.05197 -0.06378,0.09449 -0.14174,0.09449 -0.07796,0 -0.141742,-0.04252 -0.141742,-0.09449 z"
       id="path50" />
    <path
       style="fill:#000000;stroke-width:0.0944941"
       d="m 19.644942,6.5690914 c 0,-0.077957 -0.04252,-0.14174 -0.0945,-0.14174 -0.06037,0 -0.09449,-0.8189489 -0.09449,-2.2678575 0,-1.4489085 0.03412,-2.2678575 0.09449,-2.2678575 0.05197,0 0.0945,-0.063783 0.0945,-0.1417399 0,-0.077959 0.06378,-0.1417426 0.14174,-0.1417426 0.07796,0 0.14174,-0.042521 0.14174,-0.094493 0,-0.051972 0.06379,-0.094493 0.141743,-0.094493 0.07796,0 0.14174,0.042521 0.14174,0.094493 0,0.051972 0.127569,0.094493 0.283482,0.094493 H 20.77887 V 4.017754 c 0,2.0788683 -0.01945,2.4095974 -0.14174,2.4095974 -0.07796,0 -0.141743,0.063783 -0.141743,0.14174 0,0.1049946 -0.110244,0.1417426 -0.425222,0.1417426 -0.314981,0 -0.425223,-0.036748 -0.425223,-0.1417426 z"
       id="path52" />
    <path
       style="fill:#000000;stroke-width:0.0944941"
       d="m 10.195536,10.774077 c 0,-0.05197 -0.06378,-0.09449 -0.14174,-0.09449 -0.07796,0 -0.1417427,-0.06378 -0.1417427,-0.141743 0,-0.07796 -0.06378,-0.14174 -0.14174,-0.14174 -0.07796,0 -0.141742,-0.06378 -0.141742,-0.141742 0,-0.07796 -0.06378,-0.14174 -0.14174,-0.14174 -0.077957,0 -0.1417426,-0.06378 -0.1417426,-0.1417397 0,-0.07796 -0.063783,-0.141743 -0.1417399,-0.141743 -0.077957,0 -0.14174,-0.04556 -0.14174,-0.101243 0,-0.130826 -0.240403,-0.3712257 -0.3712289,-0.3712257 -0.055682,0 -0.1012428,-0.06378 -0.1012428,-0.141743 0,-0.07796 -0.063783,-0.14174 -0.1417399,-0.14174 -0.077959,0 -0.1417426,-0.06378 -0.1417426,-0.1417424 0,-0.077957 -0.063783,-0.14174 -0.14174,-0.14174 -0.077957,0 -0.1417425,-0.063783 -0.1417425,-0.1417399 0,-0.07796 -0.063783,-0.1417426 -0.14174,-0.1417426 -0.077957,0 -0.1417399,-0.045559 -0.1417399,-0.1012428 0,-0.1308259 -0.2404031,-0.3712263 -0.371229,-0.3712263 -0.055682,0 -0.1012428,-0.063783 -0.1012428,-0.1417426 0,-0.077957 -0.063783,-0.1417399 -0.1417399,-0.1417399 -0.1049946,0 -0.1417426,-0.110244 -0.1417426,-0.4252225 0,-0.3149811 0.036748,-0.4252251 0.1417426,-0.4252251 0.077957,0 0.1417399,-0.042521 0.1417399,-0.094493 0,-0.051972 0.106307,-0.094493 0.2362359,-0.094493 0.1299289,0 0.2362359,0.042521 0.2362359,0.094493 0,0.051972 0.063783,0.094493 0.1417399,0.094493 0.077957,0 0.14174,0.063783 0.14174,0.1417426 0,0.077957 0.063786,0.1417399 0.1417425,0.1417399 0.077957,0 0.14174,0.063783 0.14174,0.1417426 0,0.077957 0.063783,0.14174 0.1417426,0.14174 0.077957,0 0.1417399,0.063783 0.1417399,0.1417399 0,0.07796 0.063783,0.1417426 0.1417426,0.1417426 0.077957,0 0.1417399,0.045559 0.1417399,0.1012428 0,0.1308259 0.2404031,0.3712263 0.3712263,0.3712263 0.055684,0 0.1012428,0.063783 0.1012428,0.1417426 0,0.077957 0.063786,0.1417399 0.1417426,0.1417399 0.07796,0 0.14174,0.063783 0.14174,0.1417426 0,0.077957 0.06378,0.1417399 0.141742,0.1417399 0.07796,0 0.14174,0.063783 0.14174,0.14174 0,0.077959 0.06378,0.1417424 0.1417427,0.1417424 0.07796,0 0.14174,0.04556 0.14174,0.101243 0,0.130826 0.240403,0.3712267 0.371227,0.3712267 0.05568,0 0.101243,0.06378 0.101243,0.141742 0,0.07796 0.06378,0.14174 0.141742,0.14174 0.104992,0 0.14174,0.110244 0.14174,0.4252227 0,0.409474 -0.0105,0.425225 -0.283482,0.425225 -0.155914,0 -0.283481,0.04252 -0.283481,0.09449 0,0.05197 -0.04252,0.09449 -0.0945,0.09449 -0.05197,0 -0.09449,-0.04252 -0.09449,-0.09449 z"
       id="path54" />
    <path
       style="fill:#000000;stroke-width:0.0944941"
       d="m 1.9745538,20.270729 c 0,-0.07796 -0.063783,-0.141742 -0.1417399,-0.141742 -0.088196,0 -0.1417426,-0.08924 -0.1417426,-0.236233 0,-0.146992 0.053546,-0.236236 0.1417426,-0.236236 0.077957,0 0.1417399,-0.06378 0.1417399,-0.141743 0,-0.122211 0.3254799,-0.14174 2.3623508,-0.14174 2.0368736,0 2.3623508,0.01953 2.3623508,0.14174 0,0.07796 0.063786,0.141743 0.1417426,0.141743 0.088194,0 0.1417399,0.08924 0.1417399,0.236236 0,0.146989 -0.053546,0.236233 -0.1417399,0.236233 -0.077957,0 -0.1417426,0.06378 -0.1417426,0.141742 0,0.122211 -0.3254772,0.14174 -2.3623508,0.14174 -2.0368709,0 -2.3623508,-0.01953 -2.3623508,-0.14174 z"
       id="path56" />
    <path
       style="fill:#000000;stroke-width:0.0944941"
       d="m 7.2662204,33.027424 c 0,-0.07796 -0.063783,-0.14174 -0.1417399,-0.14174 -0.1049946,0 -0.1417426,-0.110244 -0.1417426,-0.425222 0,-0.314981 0.036748,-0.425225 0.1417426,-0.425225 0.077957,0 0.1417399,-0.04252 0.1417399,-0.09449 0,-0.05197 0.063783,-0.09449 0.1417426,-0.09449 0.077957,0 0.14174,-0.06378 0.14174,-0.141743 0,-0.07796 0.042521,-0.14174 0.094493,-0.14174 0.051972,0 0.094496,-0.06378 0.094496,-0.141742 0,-0.07796 0.063783,-0.14174 0.1417399,-0.14174 0.077957,0 0.14174,-0.06378 0.14174,-0.14174 0,-0.07796 0.063786,-0.141743 0.1417425,-0.141743 0.077957,0 0.14174,-0.06378 0.14174,-0.141739 0,-0.07796 0.063783,-0.141743 0.1417426,-0.141743 0.077957,0 0.1417399,-0.04252 0.1417399,-0.09449 0,-0.05197 0.063783,-0.09449 0.1417426,-0.09449 0.077957,0 0.1417399,-0.06378 0.1417399,-0.141742 0,-0.07796 0.042521,-0.14174 0.094493,-0.14174 0.051972,0 0.094496,-0.06378 0.094496,-0.141743 0,-0.07796 0.063783,-0.14174 0.14174,-0.14174 0.077957,0 0.1417399,-0.06378 0.1417399,-0.14174 0,-0.07796 0.063786,-0.141742 0.141743,-0.141742 0.07796,0 0.141739,-0.06378 0.141739,-0.14174 0,-0.07796 0.06378,-0.141743 0.141743,-0.141743 0.07796,0 0.14174,-0.04252 0.14174,-0.09449 0,-0.05197 0.1700897,-0.09449 0.3779757,-0.09449 0.207889,0 0.377977,0.04252 0.377977,0.09449 0,0.05197 0.06378,0.09449 0.141742,0.09449 0.09449,0 0.14174,0.0945 0.14174,0.283483 0,0.188989 -0.04725,0.283482 -0.14174,0.283482 -0.09449,0 -0.141742,0.09449 -0.141742,0.283483 0,0.155913 -0.04556,0.283482 -0.101243,0.283482 -0.130824,0 -0.371227,0.240401 -0.371227,0.371227 0,0.05568 -0.06378,0.101242 -0.14174,0.101242 -0.07796,0 -0.1417427,0.06378 -0.1417427,0.141743 0,0.07796 -0.06378,0.14174 -0.14174,0.14174 -0.07796,0 -0.141743,0.06378 -0.141743,0.14174 0,0.07796 -0.06378,0.141742 -0.141739,0.141742 -0.077957,0 -0.141743,0.06378 -0.141743,0.14174 0,0.07796 -0.045559,0.141743 -0.1012428,0.141743 -0.1308232,0 -0.3712263,0.2404 -0.3712263,0.371226 0,0.05568 -0.063783,0.101243 -0.1417399,0.101243 -0.07796,0 -0.1417426,0.06378 -0.1417426,0.141743 0,0.09449 -0.094493,0.14174 -0.2834825,0.14174 -0.1889866,0 -0.2834825,0.04725 -0.2834825,0.14174 0,0.07796 -0.063783,0.141742 -0.14174,0.141742 -0.077957,0 -0.1417399,0.06378 -0.1417399,0.14174 0,0.0882 -0.089247,0.141743 -0.2362359,0.141743 -0.1469919,0 -0.2362359,-0.05355 -0.2362359,-0.141743 z"
       id="path58" />
    <path
       style="fill:#000000;stroke-width:0.0944941"
       d="m 19.928422,38.319091 c 0,-0.08819 -0.08924,-0.14174 -0.236233,-0.14174 H 19.455953 V 35.80825 c 0,-1.92723 0.02519,-2.39428 0.134991,-2.504093 0.15236,-0.152358 0.904443,-0.186034 0.904443,-0.0405 0,0.05197 0.06378,0.09449 0.141743,0.09449 0.122285,0 0.14174,0.330729 0.14174,2.4096 0,2.078869 -0.01945,2.409598 -0.14174,2.409598 -0.07796,0 -0.141743,0.06378 -0.141743,0.14174 0,0.0945 -0.09449,0.141742 -0.283482,0.141742 -0.188987,0 -0.283483,-0.04725 -0.283483,-0.141742 z"
       id="path60" />
    <path
       style="fill:#000000;stroke-width:0.0944941"
       d="m 32.401637,33.027424 c 0,-0.07796 -0.06378,-0.14174 -0.14174,-0.14174 -0.07796,0 -0.141742,-0.06378 -0.141742,-0.141742 0,-0.07796 -0.06378,-0.14174 -0.14174,-0.14174 -0.07796,0 -0.141743,-0.06378 -0.141743,-0.14174 0,-0.07796 -0.06378,-0.141743 -0.14174,-0.141743 -0.07796,0 -0.14174,-0.04556 -0.14174,-0.101243 0,-0.130826 -0.240403,-0.371226 -0.371229,-0.371226 -0.05568,0 -0.101243,-0.06378 -0.101243,-0.141743 0,-0.07796 -0.06378,-0.14174 -0.141739,-0.14174 -0.07796,0 -0.141743,-0.06378 -0.141743,-0.141742 0,-0.07796 -0.06378,-0.14174 -0.14174,-0.14174 -0.07796,0 -0.141743,-0.06378 -0.141743,-0.14174 0,-0.07796 -0.06378,-0.141743 -0.14174,-0.141743 -0.07796,0 -0.141739,-0.04556 -0.141739,-0.101242 0,-0.130826 -0.240404,-0.371227 -0.371229,-0.371227 -0.05568,0 -0.101243,-0.06378 -0.101243,-0.141742 0,-0.07796 -0.06378,-0.14174 -0.14174,-0.14174 -0.07796,0 -0.141743,-0.06378 -0.141743,-0.141743 0,-0.07796 -0.06378,-0.14174 -0.14174,-0.14174 -0.09449,0 -0.141742,-0.09449 -0.141742,-0.283482 0,-0.188987 0.04725,-0.283483 0.141742,-0.283483 0.07796,0 0.14174,-0.04252 0.14174,-0.09449 0,-0.05197 0.17009,-0.09449 0.377976,-0.09449 0.207888,0 0.377979,0.04252 0.377979,0.09449 0,0.05197 0.06378,0.09449 0.141739,0.09449 0.07796,0 0.14174,0.06378 0.14174,0.141743 0,0.07796 0.06379,0.14174 0.141743,0.14174 0.07796,0 0.14174,0.06378 0.14174,0.141742 0,0.07796 0.06378,0.14174 0.141743,0.14174 0.07796,0 0.141739,0.06378 0.141739,0.14174 0,0.07796 0.06378,0.141743 0.141743,0.141743 0.07796,0 0.14174,0.04556 0.14174,0.101243 0,0.130826 0.240403,0.371226 0.371226,0.371226 0.05568,0 0.101243,0.06378 0.101243,0.141743 0,0.07796 0.06379,0.141739 0.141743,0.141739 0.07796,0 0.14174,0.06378 0.14174,0.141743 0,0.07796 0.06378,0.14174 0.141742,0.14174 0.07796,0 0.14174,0.06378 0.14174,0.14174 0,0.07796 0.06378,0.141742 0.141743,0.141742 0.07796,0 0.14174,0.04556 0.14174,0.101243 0,0.130826 0.240403,0.371227 0.371226,0.371227 0.05568,0 0.101243,0.06378 0.101243,0.141742 0,0.07796 0.06379,0.14174 0.141742,0.14174 0.07796,0 0.14174,0.06378 0.14174,0.141743 0,0.07796 -0.06378,0.14174 -0.14174,0.14174 -0.07796,0 -0.141742,0.06378 -0.141742,0.14174 0,0.07796 -0.06378,0.141742 -0.14174,0.141742 -0.07796,0 -0.14174,0.06378 -0.14174,0.14174 0,0.0882 -0.08925,0.141743 -0.236236,0.141743 -0.146992,0 -0.236236,-0.05355 -0.236236,-0.141743 z"
       id="path62" />
    <path
       style="fill:#000000;stroke-width:0.0944941"
       d="m 33.441071,20.270729 c 0,-0.07796 -0.06378,-0.141742 -0.14174,-0.141742 -0.07796,0 -0.141742,-0.04252 -0.141742,-0.09449 0,-0.05197 0.06379,-0.09449 0.141742,-0.09449 0.09449,0 0.14174,-0.0945 0.14174,-0.283482 v -0.283483 h 2.362351 c 2.036874,0 2.362353,0.01953 2.362353,0.14174 0,0.07796 0.06378,0.141743 0.14174,0.141743 0.102368,0 0.14174,0.104992 0.14174,0.377975 v 0.377976 h -2.50409 c -2.162863,0 -2.504094,-0.01931 -2.504094,-0.14174 z"
       id="path64" />
    <path
       style="fill:#ffffff;stroke-width:0.505076"
       d="m 69.540497,113.78681 c -1.111168,-0.40031 -2.421136,-0.73126 -2.911042,-0.73545 -0.489905,-0.004 -1.342221,-0.23489 -1.894036,-0.51268 l -2.006598,-1.01015 c -0.551815,-0.27779 -1.473422,-0.50508 -2.048016,-0.50508 -1.805587,0 -5.414753,-1.94806 -6.541926,-3.53103 -0.59518,-0.83585 -1.41308,-1.51973 -1.817554,-1.51973 -0.959486,0 -8.28718,-7.28182 -8.28718,-8.235303 0,-0.402809 -0.340926,-1.015325 -0.757614,-1.361146 -0.416688,-0.34582 -0.757614,-0.941861 -0.757614,-1.324532 0,-0.382676 -0.227285,-0.695773 -0.505077,-0.695773 -0.277792,0 -0.505076,-0.454568 -0.505076,-1.010152 0,-0.555584 -0.173668,-1.010153 -0.385929,-1.010153 -0.661233,0 -2.192075,-4.083082 -2.497404,-6.661105 -0.160228,-1.352874 -0.486163,-2.580189 -0.724301,-2.727366 -0.565493,-0.349494 -0.565493,-15.21875 0,-15.568244 0.238138,-0.147177 0.567439,-1.402913 0.731781,-2.790525 0.164342,-1.387611 0.87864,-3.561516 1.587328,-4.830898 0.708689,-1.269382 1.288525,-2.64083 1.288525,-3.047661 0,-0.406831 0.227284,-0.739692 0.505076,-0.739692 0.277792,0 0.505077,-0.244548 0.505077,-0.54344 0,-1.453431 8.574756,-11.073315 9.870282,-11.073315 0.373472,0 0.976033,-0.411764 1.339025,-0.915032 0.362992,-0.503268 1.796407,-1.430976 3.185366,-2.061574 1.38896,-0.630597 3.399176,-1.582538 4.467148,-2.115425 1.067971,-0.532886 2.374856,-0.968884 2.904189,-0.968884 0.529332,0 0.962422,-0.227284 0.962422,-0.505076 0,-0.277792 1.009366,-0.505077 2.243035,-0.505077 1.23367,0 2.383504,-0.227284 2.555189,-0.505076 0.171686,-0.277792 1.662447,-0.505076 3.312804,-0.505076 h 3.00065 v 39.143411 39.143414 l -2.399112,-0.0222 c -1.319512,-0.0122 -3.30825,-0.3497 -4.419418,-0.75001 z"
       id="path100"
       transform="scale(0.26458333)" />
  </g>
</svg>
