<?xml version="1.0" encoding="UTF-8" standalone="no"?>
<svg
   xmlns:dc="http://purl.org/dc/elements/1.1/"
   xmlns:cc="http://creativecommons.org/ns#"
   xmlns:rdf="http://www.w3.org/1999/02/22-rdf-syntax-ns#"
   xmlns:svg="http://www.w3.org/2000/svg"
   xmlns="http://www.w3.org/2000/svg"
   xmlns:sodipodi="http://sodipodi.sourceforge.net/DTD/sodipodi-0.dtd"
   xmlns:inkscape="http://www.inkscape.org/namespaces/inkscape"
   width="40mm"
   height="40mm"
   viewBox="0 0 40 40"
   version="1.1"
   id="svg8"
   inkscape:version="1.0.1 (3bc2e813f5, 2020-09-07)"
   sodipodi:docname="night2.svg">
  <defs
     id="defs2" />
  <sodipodi:namedview
     id="base"
     pagecolor="#ffffff"
     bordercolor="#666666"
     borderopacity="1.0"
     inkscape:pageopacity="0.0"
     inkscape:pageshadow="2"
     inkscape:zoom="1.979899"
     inkscape:cx="199.09256"
     inkscape:cy="167.33946"
     inkscape:document-units="mm"
     inkscape:current-layer="layer2"
     inkscape:document-rotation="0"
     showgrid="false"
     inkscape:window-width="1920"
     inkscape:window-height="1026"
     inkscape:window-x="0"
     inkscape:window-y="0"
     inkscape:window-maximized="1" />
  <metadata
     id="metadata5">
    <rdf:RDF>
      <cc:Work
         rdf:about="">
        <dc:format>image/svg+xml</dc:format>
        <dc:type
           rdf:resource="http://purl.org/dc/dcmitype/StillImage" />
        <dc:title></dc:title>
      </cc:Work>
    </rdf:RDF>
  </metadata>
  <g
     inkscape:groupmode="layer"
     id="layer2"
     inkscape:label="Layer 2">
    <path
       style="opacity:1;mix-blend-mode:normal;fill:#000000;stroke-width:0.505076"
       d="m 68.025268,113.55849 c -1.666751,-0.4873 -3.91053,-1.25703 -4.986175,-1.71051 -1.075645,-0.45349 -2.281358,-0.82453 -2.679361,-0.82453 -1.340055,0 -5.122711,-1.99757 -6.074891,-3.20807 -0.519362,-0.66027 -1.617708,-1.55502 -2.440768,-1.98834 -1.996292,-1.05101 -7.061322,-6.252489 -8.228492,-8.450162 -0.513589,-0.967039 -1.755885,-3.248423 -2.76066,-5.069748 -2.443728,-4.429671 -3.05101,-7.834362 -3.05793,-17.144092 -0.0064,-8.597141 0.480238,-11.541526 2.695952,-16.312069 2.384248,-5.133406 7.944497,-12.181835 11.117347,-14.092863 0.972271,-0.585606 2.005833,-1.351281 2.296802,-1.7015 0.647553,-0.779413 9.059616,-4.764136 10.057465,-4.764136 0.394955,0 0.843731,-0.203276 0.99728,-0.451723 0.306281,-0.495573 2.755039,-0.919041 7.987925,-1.381366 l 3.409265,-0.301208 v 39.200407 39.20041 l -2.651651,-0.0572 c -1.458407,-0.0315 -4.015356,-0.45595 -5.682108,-0.94325 z"
       id="path148"
       transform="scale(0.26458333)" />
  </g>
</svg>
